PathFileType	4	(X/Y/Z)	OpenSim_Sub03_EMGBaseline_Gyro.trc
DataRate	CameraRate	NumFrames	NumMarkers	Units	OrigDataRate	OrigDataStartFrame	OrigNumFrames
100	100	33	8	m	100	2765	7372
Frame#	Time	torso_imu_offset_imu	pelvis_imu_offset_imu	tibia_r_imu_offset_imu	femur_r_imu_offset_imu	tibia_l_imu_offset_imu	femur_l_imu_offset_imu	toes_r_imu_offset_imu	toes_l_imu_offset_imu
				X1	Y1	Z1	X2	Y2	Z2	X3	Y3	Z3	X4	Y4	Z4	X5	Y5	Z5	X6	Y6	Z6	X7	Y7	Z7	X8		Y8	Z8	

2765	27.64000000	-0.09525036	-0.02263366	-0.20292291	-0.34368219	-0.00281274	0.02601939	-0.36036536	-0.12634686	-0.82719360	-0.29467661	0.05501972	-0.62611382	-0.61577202	0.39311152	-4.02062676	-0.52471680	-0.00115526	0.90171456	0.01933688	-0.72845605	-0.39446050	0.40369042	2.99053327	-3.17068495
2766	27.65000000	-0.10401296	-0.00040589	-0.21256301	-0.37702446	-0.01976034	0.02021207	-0.34976859	-0.13525011	-0.85600769	-0.31556768	0.07513183	-0.57186446	-0.39426458	0.37673065	-3.77945855	-0.49295033	-0.06434113	0.98268481	0.04520765	-0.77112217	-0.42306317	0.31441055	2.99102003	-2.81061968
2767	27.66000000	-0.11517344	0.02902190	-0.21760004	-0.41351975	-0.03133180	0.01177612	-0.35669715	-0.14299297	-0.90201659	-0.35712742	0.11055631	-0.56331279	-0.43689458	0.27640425	-3.50072174	-0.43501047	-0.13180757	1.06041483	0.04582073	-0.82050566	-0.44211061	-0.02377797	2.88144556	-2.26922434
2768	27.67000000	-0.13446638	0.05664434	-0.22385899	-0.44301294	-0.03766026	-0.00360950	-0.37370453	-0.13875704	-0.96175874	-0.40961865	0.15004223	-0.55063951	-0.68513976	0.08901797	-3.20964681	-0.45578383	-0.17860233	1.11601818	0.02128558	-0.86028806	-0.45755562	-0.38123870	2.64760833	-1.64092220
2769	27.68000000	-0.15034131	0.07868804	-0.24444958	-0.45595132	-0.07301474	-0.02222601	-0.39904258	-0.13609805	-1.01249484	-0.43527857	0.17225233	-0.49367970	-0.99474874	-0.01152663	-2.89828358	-0.57701195	-0.17024683	1.13968388	0.03465726	-0.91828564	-0.48743934	-0.39164102	2.33819310	-1.12399242
2770	27.69000000	-0.16270720	0.11514366	-0.25519678	-0.44003630	-0.11954000	-0.02665899	-0.41496821	-0.13565154	-1.05622121	-0.44067350	0.19958753	-0.45734892	-1.19860332	0.03010767	-2.46221679	-0.73667775	-0.07340505	1.07356125	0.03471461	-0.98664979	-0.50426852	-0.16183734	2.02012710	-0.87742361
2771	27.70000000	-0.17465370	0.16323603	-0.25217020	-0.40960790	-0.14692964	-0.04137420	-0.44697061	-0.13218660	-1.10926542	-0.41317463	0.23369806	-0.40224158	-1.17355476	0.08039092	-1.90215772	-0.82803438	0.02688099	0.87694757	0.01986062	-1.05912176	-0.52822081	-0.08887142	1.65056898	-0.79741674
2772	27.71000000	-0.18076558	0.19842104	-0.24342457	-0.37092350	-0.16060904	-0.03929629	-0.46082475	-0.13736025	-1.17591167	-0.39833773	0.27507398	-0.37954552	-0.84326214	0.01358821	-1.23038273	-0.74671491	0.00202597	0.60212200	-0.00032086	-1.14761753	-0.53985648	-0.06050487	0.90667587	-0.69834916
2773	27.72000000	-0.17369486	0.22495437	-0.23089769	-0.30747979	-0.15507346	-0.01494716	-0.46348038	-0.13817552	-1.23994707	-0.38097174	0.31368212	-0.39364450	-0.26819990	-0.11655303	-0.47900102	-0.48738991	-0.12499342	0.32796719	-0.02395896	-1.24470294	-0.54867655	-0.18542367	-0.04526636	-0.44272536
2774	27.73000000	-0.16258649	0.24370905	-0.21622450	-0.26463715	-0.15725583	-0.01353292	-0.45681030	-0.13790719	-1.30801749	-0.32686625	0.35442176	-0.36190446	0.08828275	-0.15742632	0.26092208	-0.21643289	-0.23229574	0.10054814	-0.05183815	-1.34634382	-0.57056219	-0.69922231	-1.20364254	0.01449304
2775	27.74000000	-0.14973428	0.25815975	-0.20636939	-0.24594635	-0.16388869	0.00636723	-0.44504122	-0.13626878	-1.38033189	-0.22783890	0.39371412	-0.25769050	-0.01978297	-0.21510621	0.93231876	-0.02573801	-0.24249945	-0.05059958	-0.09631100	-1.47015331	-0.56580445	-1.11956260	-2.23523222	0.55100995
2776	27.75000000	-0.13510293	0.27818453	-0.19088966	-0.26827831	-0.14674589	0.03338093	-0.44420207	-0.13728366	-1.47437651	-0.14212034	0.43742249	-0.17636678	-0.37871856	-0.44564691	1.50831733	0.25647034	-0.27756786	-0.11622783	-0.11199065	-1.61054126	-0.57496213	0.33121984	-3.11765197	0.88392987
2777	27.76000000	-0.11405733	0.28008767	-0.17333202	-0.31401504	-0.10636060	0.03722231	-0.43072250	-0.14764626	-1.57330593	-0.10231693	0.49757400	-0.17825548	-0.46811779	-0.69969228	1.78066533	0.60672542	-0.47892886	-0.01475290	-0.15688317	-1.76220478	-0.59929264	0.43636918	-3.15056175	0.95441485
2778	27.77000000	-0.08805060	0.27378280	-0.15701449	-0.32768066	-0.08320219	-0.00637288	-0.42352251	-0.16560943	-1.67261810	-0.02532772	0.53456257	-0.04810988	0.36349030	-0.91786684	1.23059733	0.91950447	-0.73104423	0.21348168	-0.18935509	-1.94745287	-0.66371332	-1.64182791	-2.51913060	1.04404616
2779	27.78000000	-0.06361772	0.29186961	-0.13681669	-0.27906538	-0.11296895	-0.11039311	-0.43374639	-0.19843035	-1.75481688	0.04897896	0.56533600	0.14570214	0.65848430	-0.74797474	0.12347753	1.14911193	-0.87055005	0.45241454	-0.19388428	-2.15239424	-0.79551294	-1.15203377	-3.35343925	1.07541635
2780	27.79000000	-0.04398734	0.34731422	-0.10855607	-0.17799598	-0.16718098	-0.25542967	-0.46515062	-0.24405544	-1.81059848	0.03663114	0.63005527	0.20384753	-0.40932230	-0.17462836	-0.06964846	1.04510291	-0.82081741	0.74766821	-0.15758614	-2.37917572	-0.98340932	-1.08262861	-3.38497898	1.20172392
2781	27.80000000	-0.03816323	0.40398707	-0.06463665	-0.05602180	-0.20097048	-0.39082022	-0.54753906	-0.28747866	-1.88972909	0.04838684	0.69855318	0.28263381	-1.06268991	-0.10960977	0.66000880	0.69418055	-0.54960224	1.03722951	-0.08091580	-2.62066378	-1.18326391	-1.67691957	-1.96614968	1.37531798
2782	27.81000000	-0.01376991	0.40911089	-0.03403958	0.04829517	-0.21216420	-0.47011711	-0.63707739	-0.31250947	-1.99282284	0.14944993	0.76725949	0.51309494	-1.44846046	-0.38006785	1.07127807	0.55209503	-0.16520439	1.12658172	0.05440352	-2.94796392	-1.41297779	-1.47261533	-0.78454484	1.06619518
2783	27.82000000	0.03055834	0.39447880	-0.03385352	0.12523071	-0.19414421	-0.46380754	-0.69412562	-0.30724155	-2.08160164	0.25659602	0.82508036	0.70817734	-1.60545259	-0.42746005	1.26985259	0.61601974	0.20800916	0.93483357	0.32957696	-3.38027682	-1.68176203	-1.30755944	-0.14128147	0.70569835
2784	27.83000000	0.06610867	0.39516472	-0.04210567	0.19197205	-0.15415833	-0.41700472	-0.73624541	-0.30808831	-2.15468444	0.33506460	0.85252969	0.86960429	-0.96873535	-0.54713289	1.48594817	0.69847945	0.28498648	0.54471779	0.64858791	-3.87868255	-1.98990001	-0.72895376	-0.05426311	0.37369993
2785	27.84000000	0.07183146	0.40334225	-0.03040091	0.22199301	-0.11285747	-0.38570099	-0.77813569	-0.32604849	-2.21201523	0.36911015	0.87765642	1.12358722	-0.13998583	-0.56098343	1.49286685	0.64626254	-0.13313056	0.25081221	1.01630862	-4.36304441	-2.34901527	-0.29814328	0.10008078	0.04217246
2786	27.85000000	0.05688169	0.40398204	-0.01212371	0.19254160	-0.07042009	-0.37507918	-0.79305368	-0.38941400	-2.25036576	0.23381378	0.95049640	1.36299276	0.09083062	-0.28866693	1.62472555	0.28664042	-0.61230963	0.26607798	1.22462082	-4.54324166	-2.63648034	0.13157466	0.04594745	-0.10226007
2787	27.86000000	0.04069040	0.40277246	-0.00832713	0.11616524	-0.03278789	-0.37316723	-0.69964993	-0.51874729	-2.25371328	-0.02350058	1.00582053	1.54064337	-0.02331781	-0.20156113	1.63803304	-0.08988531	-0.85061278	0.46685093	1.10313638	-4.62804250	-2.83170064	0.19386635	-0.03333089	-0.16607495
2788	27.87000000	0.00802617	0.40233912	-0.01880084	0.01734017	-0.02084962	-0.39027277	-0.56046497	-0.67933330	-2.25010084	-0.18711496	1.00431491	1.71065242	-0.04577541	-0.19676111	1.18229219	-0.20571138	-0.89256658	0.67369896	0.93397773	-4.69070706	-3.02103111	0.14967005	-0.08107902	-0.16677792
2789	27.88000000	-0.03111161	0.39113941	-0.03828441	-0.08602623	-0.00445648	-0.40337518	-0.51306548	-0.83028934	-2.28444151	-0.33605170	1.04357220	1.88476420	-0.24580302	-0.22237583	0.89571798	-0.24065666	-0.67128401	0.88461463	0.66566639	-4.54927535	-3.11380384	0.09498834	-0.03563327	-0.14293305
2790	27.89000000	-0.07526344	0.35414527	-0.04577225	-0.19145402	0.02639038	-0.39497533	-0.51640187	-0.90950495	-2.32039004	-0.54375068	1.10382601	2.05908257	-0.63982667	-0.43411533	1.01811881	-0.25612526	-0.31581415	1.03077272	0.31958176	-4.50692958	-3.12680068	0.02442227	0.01126027	-0.09199496
2791	27.90000000	-0.11418484	0.29466661	-0.04171944	-0.27432325	0.05462191	-0.36221569	-0.50071375	-0.88816636	-2.31882120	-0.66800773	1.05429535	2.17696170	-0.59598187	-0.44954965	1.04884106	-0.10567510	-0.07568537	1.03639274	-0.08981442	-4.35019912	-3.05092589	-0.07718754	0.04803893	-0.02230809
2792	27.91000000	-0.14779023	0.20503389	-0.02688457	-0.31829387	0.09230767	-0.29960312	-0.56017796	-0.84976169	-2.26615752	-0.75380523	0.93162165	2.25198110	-0.40396439	-0.27790145	0.89223337	0.06863189	-0.01706437	1.00385421	-0.39841836	-4.15934447	-2.98797387	-0.13804156	0.07842242	0.04330761
2793	27.92000000	-0.19326389	0.12056367	0.00167497	-0.32417408	0.13002570	-0.21805604	-0.65726254	-0.80605320	-2.09101949	-0.81507956	0.76553469	2.27668828	-0.10530957	-0.29182615	0.86200831	0.11529921	-0.08823711	0.98489559	-0.62053506	-4.17844286	-3.05743216	-0.11452725	0.07132947	0.06787096
2794	27.93000000	-0.26299345	0.07122660	0.03523362	-0.29300758	0.13469254	-0.13592249	-0.56481762	-0.74146591	-1.77488296	-0.79538817	0.54478985	2.22310590	0.15288405	-0.25517909	0.88598856	0.08936080	-0.24174170	0.96103592	-0.59600092	-4.14526121	-3.19272644	-0.10013531	0.02931125	0.09446756
2795	27.94000000	-0.31749045	0.02663849	0.05500637	-0.23575370	0.10554750	-0.06010231	-0.47456684	-0.67843808	-1.43431211	-0.74557333	0.36782026	2.12965274	0.28185663	-0.23171372	0.80301477	0.03945027	-0.41950052	0.91653453	-0.41197214	-3.64173520	-3.23817422	-0.10215718	-0.00679911	0.10326320
2796	27.95000000	-0.34791259	-0.02711988	0.04082128	-0.16121423	0.07141423	0.00061141	-0.55848659	-0.59229088	-1.18836376	-0.67603097	0.28345363	2.02534749	0.31052269	-0.27509480	0.75835033	-0.06468778	-0.57055804	0.85299865	-0.85728090	-2.17224497	-2.57467632	-0.08173618	-0.05018840	0.09709707
2797	27.96000000	-0.37461303	-0.06981957	0.01585080	-0.06722649	0.03610512	0.06445393	-0.68055316	-0.40281804	-1.06609888	-0.60285172	0.23729857	1.93321928	0.33995772	-0.26251832	0.77956221	-0.20634889	-0.64156554	0.78260588	-1.74692982	-0.31833117	-1.32960905	-0.05003951	-0.10061562	0.08418229
